# xmcd
#
# Track frame offsets:
# 150
# 12078
# 30545
# 46155
# 61496
# 76284
# 93384
# 109725
# 125396
# 140307
# 160770
# 173823
# 197517
# 213017
# 217079
# 235863
# 256572
# 275692
# 296584
#
# Disc length: 4146 seconds
#
#
# Revision: 0
# Processed by: cddbd v1.5.1PL0 Copyright (c) Steve Scherf et al.
# Submitted via: FreeRIP 2.942 
#
DISCID=fe103013
DTITLE=Martina McBride - Martina McBride:  Greatest Hits
DYEAR=1900
DGENRE=Country
TTITLE0=My Baby Loves Me
TTITLE1=Life #9
TTITLE2=Independence Day
TTITLE3=Strangers
TTITLE4=Safe In the Arms of Love
TTITLE5=Wild Angels
TTITLE6=A Broken Wing
TTITLE7=Happy Girl
TTITLE8=Wrong Again
TTITLE9=Whatever You Say
TTITLE10=I Love You
TTITLE11=Love's the Only House
TTITLE12=There You Are
TTITLE13=When God-Fearin' Women Get the Blues (Intro)
TTITLE14=When God-Fearin' Women Get the Blues
TTITLE15=Where Would You Be
TTITLE16=Concrete Angel
TTITLE17=Blessed
TTITLE18=Valentine
EXTD=
EXTT0=
EXTT1=
EXTT2=
EXTT3=
EXTT4=
EXTT5=
EXTT6=
EXTT7=
EXTT8=
EXTT9=
EXTT10=
EXTT11=
EXTT12=
EXTT13=
EXTT14=
EXTT15=
EXTT16=
EXTT17=
EXTT18=
PLAYORDER=
